# AST/ASF file generated using VICON BodyLanguage
# -----------------------------------------------
:version 1.10
:name VICON
:units
  mass 1.0
  length 0.45
  angle deg
:documentation
   .ast/.asf automatically generated from VICON data using
   VICON BodyBuilder and BodyLanguage model FoxedUp or BRILLIANT.MOD
:root
   order TX TY TZ RX RY RZ
   axis XYZ
   position 0 0 0  
   orientation 0 0 0 
:bonedata
  begin
     id 1 
     name lhipjoint
     direction 0.575328 -0.747301 0.332475 
     length 2.40933 
     axis 0 0 0  XYZ
  end
  begin
     id 2 
     name lfemur
     direction 0.34202 -0.939693 0  
     length 7.31453  
     axis 0 0 20  XYZ
    dof rx ry rz
    limits (-160.0 20.0)
           (-70.0 70.0)
           (-60.0 70.0)
  end
  begin
     id 3 
     name ltibia
     direction 0.34202 -0.939693 0   
     length 7.82185   
     axis 0 0 20   XYZ
    dof rx
    limits (-10.0 170.0)
  end
  begin
     id 4 
     name lfoot
     direction 0.0795993 -0.218697 0.972541   
     length 2.19173   
     axis -90 7.62852e-016 20   XYZ
    dof rx rz
    limits (-45.0 90.0)
           (-70.0 20.0)
  end
  begin
     id 5 
     name ltoes
     direction 1.53537e-011 -4.21894e-011 1   
     length 1.10023   
     axis -90 7.62852e-016 20   XYZ
    dof rx
    limits (-90.0 20.0)
  end
  begin
     id 6 
     name rhipjoint
     direction -0.513884 -0.783789 0.348708   
     length 2.29716  
     axis 0 0 0  XYZ 
  end
  begin
     id 7 
     name rfemur
     direction -0.34202 -0.939693 0   
     length 7.59573   
     axis 0 0 -20   XYZ
    dof rx ry rz
    limits (-160.0 20.0)
           (-70.0 70.0)
           (-70.0 60.0)
  end
  begin
     id 8 
     name rtibia
     direction -0.34202 -0.939693 0   
     length 7.66402   
     axis 0 0 -20   XYZ
    dof rx
    limits (-10.0 170.0)
 end
 begin
     id 9 
     name rfoot
     direction -0.137793 -0.378584 0.915253   
     length 2.27056  
     axis -90 -7.62852e-016 -20   XYZ
    dof rx rz
    limits (-45.0 90.0)
           (-20.0 70.0)
  end
  begin
     id 10 
     name rtoes
     direction -1.53493e-011 -4.22159e-011 1   
     length 1.11766   
     axis -90 -7.62852e-016 -20   XYZ
    dof rx
    limits (-90.0 20.0)
  end
  begin
     id 11 
     name lowerback
     direction -0.00732775 0.998356 -0.05685   
     length 2.16513   
     axis 0 0 0   XYZ
    dof rx ry rz
    limits (-20.0 45.0)
           (-30.0 30.0)
           (-30.0 30.0)
  end
  begin
     id 12 
     name upperback
     direction 0.0218081 0.999627 -0.0164647   
     length 2.16755   
     axis 0 0 0   XYZ
    dof rx ry rz
    limits (-20.0 45.0)
           (-30.0 30.0)
           (-30.0 30.0)
  end
  begin
     id 13 
     name thorax
     direction 0.02365 0.999661 0.0108914   
     length 2.16932   
     axis 0 0 0   XYZ
    dof rx ry rz
    limits (-20.0 45.0)
           (-30.0 30.0)
           (-30.0 30.0)
  end
  begin
     id 14 
     name lowerneck
     direction -0.0523929 0.978385 0.200044   
     length 1.63877   
     axis 0 0 0   XYZ
    dof rx ry rz
    limits (-20.0 45.0)
           (-30.0 30.0)
           (-30.0 30.0)
  end
  begin
     id 15 
     name upperneck
     direction 0.0448674 0.981321 -0.187074   
     length 1.69014   
     axis 0 0 0   XYZ
    dof rx ry rz
    limits (-20.0 45.0)
           (-30.0 30.0)
           (-30.0 30.0)
  end
  begin
     id 16
     name head
     direction 0.0199089 0.996118 -0.0857429  
     length 1.70094  
     axis 0 0 0   XYZ
    dof rx ry rz
    limits (-20.0 45.0)
           (-30.0 30.0)
           (-30.0 30.0)
  end
  begin
     id 17 
     name lclavicle
     direction 0.940366 0.30191 -0.156722  
     length 3.37521  
     axis 0 0 0   XYZ
    dof ry rz
    limits (-20.0 10.0)
           (0.0 20.0)
  end
  begin
     id 18 
     name lhumerus
     direction 1 -4.4897e-011 -1.7911e-027   
     length 5.25287   
     axis 180 -30 -90   XYZ
    dof rx ry rz
    limits (-60.0 90.0)
           (-90.0 90.0)
           (-90.0 90.0)
  end
  begin
     id 19
     name lradius
     direction 1 -4.48951e-011 1.04424e-027   
     length 3.51014   
     axis 180 -30 -90   XYZ
    dof rx
    limits (-10.0 170.0)
  end
  begin
     id 20
     name lwrist
     direction 1 -4.48997e-011 -9.5942e-028   
     length 1.75507   
     axis 8.48502e-016 90 90   XYZ
    dof ry
    limits (-180.0 0.0)
 end
  begin
     id 21 
     name lhand
     direction 1 -4.48831e-011 -1.90777e-027   
     length 0.706179   
     axis 1.22306e-015 90 90   XYZ
    dof rx rz
    limits (-90.0 90.0)
           (-45.0 45.0)
  end
  begin
     id 22 
     name lfingers
     direction 1 -4.49108e-011 -3.85244e-027   
     length 0.569339   
     axis 2.44611e-015 90 90   XYZ
    dof rx
    limits (0.0 90.0)
  end
  begin
     id 23
     name lthumb
     direction 0.707107 -6.34953e-011 0.707107   
     length 0.817461   
     axis -90 45 -1.62303e-014   XYZ
    dof rx rz
    limits (-45.0 45.0)
           (-45.0 45.0)
  end
  begin
     id 24 
     name rclavicle
     direction -0.905329 0.382405 -0.184787   
     length 3.30787  
     axis 0 0 0   XYZ 
    dof ry rz
    limits (-10.0 20.0)
           (-20.0 0.0)
  end
  begin
     id 25 
     name rhumerus
     direction -1 -4.48953e-011 -9.15316e-029  
     length 5.28721   
     axis 180 30 90   XYZ
    dof rx ry rz
    limits (-90.0 60.0)
           (-90.0 90.0)
           (-90.0 90.0)
  end
  begin
     id 26 
     name rradius
     direction -1 -4.48987e-011 9.37824e-028   
     length 3.50544   
     axis 180 30 90   XYZ
    dof rx
    limits (-10.0 170.0)
  end
  begin
     id 27 
     name rwrist
     direction -1 -4.48967e-011 -9.58414e-028   
     length 1.75272   
     axis 8.48502e-016 -90 -90   XYZ
    dof ry
    limits (-180.0 0.0)
  end
  begin
     id 28
     name rhand
     direction -1 -4.48904e-011 -1.91266e-027   
     length 0.884996   
     axis 1.22306e-015 -90 -90   XYZ
    dof rx rz
    limits (-90.0 90.0)
           (-45.0 45.0)
  end
  begin
     id 29
     name rfingers
     direction -1 -4.4909e-011 -3.85015e-027   
     length 0.713507   
     axis 2.44611e-015 -90 -90   XYZ
    dof rx
    limits (0.0 90.0)
  end
  begin
     id 30
     name rthumb
     direction -0.707107 -6.34853e-011 0.707107   
     length 1.02446   
     axis -90 -45 1.62303e-014   XYZ
    dof rx rz
    limits (-45.0 45.0)
           (-45.0 45.0)
  end
:hierarchy
  begin
    root lhipjoint rhipjoint lowerback
    lhipjoint lfemur
    lfemur ltibia
    ltibia lfoot
    lfoot ltoes
    rhipjoint rfemur
    rfemur rtibia
    rtibia rfoot
    rfoot rtoes
    lowerback upperback
    upperback thorax
    thorax lowerneck lclavicle rclavicle
    lowerneck upperneck
    upperneck head
    lclavicle lhumerus
    lhumerus lradius
    lradius lwrist
    lwrist lhand lthumb
    lhand lfingers
    rclavicle rhumerus
    rhumerus rradius
    rradius rwrist
    rwrist rhand rthumb
    rhand rfingers
  end

#!OML:ASF F:\twosubjects\two\Thursday\Session 1\justin.ASF
:FULLY-SPECIFIED
:DEGREES
186
root 19.2529 16.9903 1.23521 4.6145 -39.5724 4.27835
lowerback 24.7788 1.97574 -3.84768
upperback 8.20606 1.43502 0.984233
thorax -4.82096 0.551504 2.87788
lowerneck -9.90384 -12.4177 -17.7565
upperneck -10.5255 -14.6008 15.6324
head 0.947577 -6.99075 6.76733
rclavicle 3.97569e-015 -2.3059e-014
rhumerus -24.1929 -1.3489 -81.731
rradius 51.4707
rwrist -4.26175
rhand -15.5568 16.5262
rfingers 7.12502
rthumb 10.6277 -13.1851
lclavicle 3.97569e-015 -2.3059e-014
lhumerus -32.3474 -5.32093 90.5577
lradius 69.105
lwrist -12.6187
lhand -17.1241 39.1215
lfingers 7.12502
lthumb 9.11556 68.9045
rfemur -35.882 -8.65397 20.6682
rtibia 59.9281
rfoot -29.7019 -10.3051
rtoes -6.60126
lfemur -43.153 12.6372 -12.072
ltibia 57.1625
lfoot -13.6781 -16.8333
ltoes -29.7436
187
root 19.3055 16.9823 1.23743 4.56618 -39.0166 4.40242
lowerback 24.582 1.57474 -3.59382
upperback 8.36698 0.969874 0.695507
thorax -4.50403 0.322186 2.55105
lowerneck -10.6309 -12.3616 -16.9898
upperneck -10.2962 -14.509 15.2015
head 1.01441 -6.94375 6.48876
rclavicle -6.12257e-014 2.94201e-014
rhumerus -23.925 -2.11215 -81.776
rradius 51.2147
rwrist -5.24923
rhand -13.6718 17.8783
rfingers 7.12502
rthumb 12.4456 -11.7312
lclavicle -6.12257e-014 2.94201e-014
lhumerus -32.1828 -4.71702 89.9205
lradius 69.3932
lwrist -11.6485
lhand -17.3145 39.201
lfingers 7.12502
lthumb 8.93186 68.992
rfemur -35.8776 -9.54553 20.485
rtibia 59.7879
rfoot -29.8104 -10.0153
rtoes -5.99543
lfemur -43.1158 11.6616 -11.5218
ltibia 57.5332
lfoot -14.4296 -14.583
ltoes -28.8371
188
root 19.3552 16.9841 1.22648 4.32601 -39.5445 4.41911
lowerback 24.8329 1.73038 -3.70244
upperback 8.33307 1.10959 0.42218
thorax -4.67099 0.393497 2.27499
lowerneck -10.4195 -12.2749 -16.7247
upperneck -10.3813 -14.4484 15.1898
head 0.931723 -6.92893 6.46795
rclavicle 1.49089e-014 -2.14687e-014
rhumerus -24.0876 -2.96909 -81.8324
rradius 50.8765
rwrist -5.40755
rhand -12.9284 19.1794
rfingers 7.12502
rthumb 13.1622 -10.3852
lclavicle 1.49089e-014 -2.14687e-014
lhumerus -32.4635 -4.38378 89.3781
lradius 69.5855
lwrist -10.7311
lhand -17.1138 38.9184
lfingers 7.12502
lthumb 9.12554 68.701
rfemur -35.7968 -9.54224 20.3207
rtibia 59.7661
rfoot -29.6768 -9.41882
rtoes -5.46297
lfemur -42.43 11.4894 -10.7071
ltibia 57.9154
lfoot -14.8319 -12.5299
ltoes -26.3106
189
root 19.4053 16.9813 1.22021 4.04338 -39.7751 4.82105
lowerback 24.9115 1.95431 -4.33828
upperback 8.18005 1.2487 0.478471
thorax -4.8964 0.464 2.65929
lowerneck -9.61883 -12.2482 -17.2481
upperneck -10.92 -14.454 15.4347
head 0.713696 -6.9441 6.68234
rclavicle 2.66371e-014 -2.3059e-014
rhumerus -24.2515 -3.10197 -81.4024
rradius 50.4592
rwrist -4.91809
rhand -14.2069 18.5339
rfingers 7.12502
rthumb 11.9296 -11.1062
lclavicle 2.66371e-014 -2.3059e-014
lhumerus -32.7808 -3.80162 89.4607
lradius 69.7085
lwrist -10.1184
lhand -16.7832 38.6303
lfingers 7.12502
lthumb 9.44457 68.3987
rfemur -36.1079 -9.56078 19.8578
rtibia 59.9394
rfoot -29.4411 -9.03396
rtoes -5.99408
lfemur -41.9526 11.0437 -10.2885
ltibia 58.3323
lfoot -14.7204 -10.639
ltoes -23.8904
190
root 19.4529 16.9688 1.21692 4.20716 -39.878 4.8046
lowerback 24.7171 2.01437 -4.80246
upperback 8.17282 1.23966 0.642321
thorax -4.81627 0.453975 3.10827
lowerneck -9.45586 -12.1317 -17.523
upperneck -11.4601 -14.2744 15.4736
head 0.524375 -6.85273 6.78665
rclavicle 2.70347e-014 -1.15295e-014
rhumerus -23.9555 -3.17318 -81.0224
rradius 49.9285
rwrist -4.97735
rhand -15.0649 17.7199
rfingers 7.12502
rthumb 11.1022 -11.9664
lclavicle 2.70347e-014 -1.15295e-014
lhumerus -32.7551 -2.81822 89.428
lradius 69.9972
lwrist -9.60334
lhand -16.2226 38.465
lfingers 7.12502
lthumb 9.98544 68.2081
rfemur -36.6644 -9.74577 19.8277
rtibia 60.1911
rfoot -29.1106 -8.69726
rtoes -6.62421
lfemur -41.6999 10.6188 -9.58004
ltibia 58.7904
lfoot -14.9555 -9.06761
ltoes -23.9907
191
root 19.5018 16.9619 1.21874 4.24436 -40.0538 4.74712
lowerback 24.4757 1.97387 -4.82922
upperback 8.37688 1.17975 0.468335
thorax -4.46461 0.411791 2.95364
lowerneck -9.91042 -12.088 -17.1165
upperneck -11.6589 -14.1849 15.1842
head 0.463418 -6.80744 6.63429
rclavicle 8.15017e-015 -4.45278e-014
rhumerus -23.7162 -3.74324 -80.8422
rradius 49.6942
rwrist -5.22939
rhand -14.1846 18.397
rfingers 7.12502
rthumb 11.9511 -11.2419
lclavicle 8.15017e-015 -4.45278e-014
lhumerus -32.4332 -2.30872 88.8948
lradius 70.2011
lwrist -8.83383
lhand -15.0114 38.4525
lfingers 7.12502
lthumb 11.1537 68.1361
rfemur -36.961 -9.77595 19.774
rtibia 60.4539
rfoot -28.9169 -8.40996
rtoes -6.49322
lfemur -41.1889 9.82524 -8.56383
ltibia 59.2373
lfoot -14.4961 -8.8879
ltoes -18.06
192
root 19.5566 16.9647 1.22867 3.77916 -40.2734 5.19166
lowerback 24.3734 2.01852 -5.07137
upperback 8.56652 1.16544 0.195576
thorax -4.20181 0.392811 2.80112
lowerneck -10.0667 -12.1492 -17.2184
upperneck -11.767 -14.2232 15.412
head 0.490324 -6.82217 6.70935
rclavicle -2.74323e-014 7.95139e-015
rhumerus -23.7597 -4.14217 -80.5798
rradius 49.8013
rwrist -6.00196
rhand -14.0315 18.0842
rfingers 7.12502
rthumb 12.0988 -11.546
lclavicle -2.74323e-014 7.95139e-015
lhumerus -32.2599 -2.04747 88.4821
lradius 70.1971
lwrist -8.10429
lhand -14.2351 38.4536
lfingers 7.12502
lthumb 11.9024 68.0953
rfemur -36.9645 -9.94321 19.2255
rtibia 60.5859
rfoot -28.9838 -8.24088
rtoes -7.48066
lfemur -40.4159 8.98607 -8.06202
ltibia 59.7464
lfoot -13.9565 -8.63935
ltoes -10.9958
193
root 19.6159 16.9434 1.23473 3.63134 -40.5058 5.17389
lowerback 24.4814 2.13901 -5.52268
upperback 8.55244 1.22044 0.395179
thorax -4.28271 0.413191 3.26044
lowerneck -10.0177 -12.0313 -17.6407
upperneck -11.8449 -14.0289 15.4141
head 0.457229 -6.70993 6.80071
rclavicle -7.97127e-014 -7.95139e-015
rhumerus -23.8738 -4.22509 -80.0408
rradius 49.7765
rwrist -6.84011
rhand -15.1821 16.3468
rfingers 7.12502
rthumb 10.9891 -13.3456
lclavicle -7.97127e-014 -7.95139e-015
lhumerus -32.4922 -1.24123 88.5401
lradius 70.295
lwrist -7.73363
lhand -13.8734 38.4221
lfingers 7.12502
lthumb 12.2512 68.0433
rfemur -37.1012 -10.4641 19.144
rtibia 60.7144
rfoot -28.9137 -7.95452
rtoes -9.07379
lfemur -39.7872 9.1349 -7.85212
ltibia 60.1823
lfoot -14.8556 -6.08983
ltoes -22.472
194
root 19.672 16.9487 1.23136 3.85512 -40.6304 4.63197
lowerback 24.6182 2.18237 -5.53968
upperback 8.50665 1.27784 0.640215
thorax -4.41082 0.441683 3.52039
lowerneck -10.0043 -11.9329 -17.741
upperneck -11.8291 -13.8997 15.1298
head 0.416542 -6.63752 6.74494
rclavicle -1.15295e-014 -2.94201e-014
rhumerus -24.0178 -4.86307 -79.3642
rradius 49.3868
rwrist -6.32014
rhand -15.3243 16.2565
rfingers 7.12502
rthumb 10.852 -13.4431
lclavicle -1.15295e-014 -2.94201e-014
lhumerus -32.7372 -0.650054 88.5411
lradius 70.307
lwrist -7.41086
lhand -13.553 38.1053
lfingers 7.12502
lthumb 12.5601 67.7077
rfemur -37.0988 -10.6761 19.5196
rtibia 60.7065
rfoot -28.9229 -7.69244
rtoes -8.33498
lfemur -39.3732 8.80732 -6.69936
ltibia 60.7504
lfoot -14.2249 -6.52286
ltoes -20.1027
195
root 19.7252 16.9323 1.23604 4.01141 -40.704 4.16335
lowerback 24.7845 2.18064 -5.56361
upperback 8.47987 1.26709 0.782869
thorax -4.52394 0.437164 3.69201
lowerneck -10.2624 -11.8744 -17.1913
upperneck -11.7109 -13.8595 14.5119
head 0.386499 -6.62334 6.46442
rclavicle 1.55052e-014 -2.62396e-014
rhumerus -24.1959 -5.45768 -78.7551
rradius 49.0294
rwrist -5.88694
rhand -15.2226 16.6449
rfingers 7.12502
rthumb 10.9501 -13.0496
lclavicle 1.55052e-014 -2.62396e-014
lhumerus -32.91 -0.246291 88.3774
lradius 70.1762
lwrist -6.97457
lhand -13.3164 37.7139
lfingers 7.12502
lthumb 12.7882 67.3022
rfemur -37.0775 -10.5965 19.7501
rtibia 60.7871
rfoot -29.0968 -7.58525
rtoes -6.90529
lfemur -38.5527 8.17712 -5.41484
ltibia 61.2097
lfoot -13.1284 -7.84638
ltoes -11.7475
196
root 19.7752 16.9094 1.23851 4.09031 -40.7812 4.13667
lowerback 24.7312 2.22581 -6.09997
upperback 8.43006 1.21385 0.922348
thorax -4.55329 0.407405 4.16811
lowerneck -10.4071 -11.9001 -18.3749
upperneck -11.4915 -13.7363 15.2969
head 0.605647 -6.52069 6.8735
rclavicle 2.72335e-014 -6.55989e-014
rhumerus -24.0923 -5.77921 -78.2385
rradius 48.5118
rwrist -6.34965
rhand -15.5405 16.4094
rfingers 7.12502
rthumb 10.6435 -13.3011
lclavicle 2.72335e-014 -6.55989e-014
lhumerus -32.9687 0.295392 88.2616
lradius 70.0501
lwrist -6.59005
lhand -13.0902 37.6585
lfingers 7.12502
lthumb 13.0062 67.2331
rfemur -37.3723 -10.8356 19.6672
rtibia 60.8802
rfoot -29.103 -7.29675
rtoes -7.28499
lfemur -38.0958 8.19459 -5.15481
ltibia 61.5828
lfoot -12.7926 -7.04104
ltoes -16.4412
197
root 19.8361 16.888 1.2414 4.27092 -40.8514 3.90534
lowerback 24.6288 2.21421 -6.02015
upperback 8.4701 1.22198 0.892492
thorax -4.45865 0.408069 4.0878
lowerneck -10.0548 -11.8701 -18.9503
upperneck -12.0643 -13.6614 15.8344
head 0.462771 -6.47917 7.17324
rclavicle -8.74653e-015 3.65764e-014
rhumerus -23.9579 -6.36103 -77.7634
rradius 48.0077
rwrist -7.19288
rhand -15.7688 16.0689
rfingers 7.12502
rthumb 10.4232 -13.6528
lclavicle -8.74653e-015 3.65764e-014
lhumerus -32.8634 0.215279 88.0439
lradius 69.9125
lwrist -6.17657
lhand -12.9495 37.6743
lfingers 7.12502
lthumb 13.1419 67.2401
rfemur -37.6904 -11.1007 19.749
rtibia 61.0588
rfoot -29.2633 -7.15197
rtoes -8.84929
lfemur -37.6179 8.07705 -4.65751
ltibia 61.8715
lfoot -11.998 -6.64818
ltoes -17.4976
198
root 19.9011 16.87 1.24899 4.25636 -41.0308 3.66625
lowerback 24.757 2.24772 -5.88258
upperback 8.54156 1.27932 0.823083
thorax -4.4471 0.433475 3.91618
lowerneck -10.2115 -11.8537 -18.6666
upperneck -12.3448 -13.6355 15.6556
head 0.363129 -6.47054 7.0833
rclavicle 2.84262e-014 9.74045e-015
rhumerus -24.241 -6.66927 -77.199
rradius 48.0395
rwrist -8.12524
rhand -16.0338 15.4409
rfingers 7.12502
rthumb 10.1676 -14.2934
lclavicle 2.84262e-014 9.74045e-015
lhumerus -32.7726 -0.125273 87.7936
lradius 69.7169
lwrist -5.6968
lhand -12.7773 37.8048
lfingers 7.12502
lthumb 13.3079 67.3599
rfemur -37.7829 -11.1295 19.7506
rtibia 61.2206
rfoot -29.1442 -7.19134
rtoes -10.4098
lfemur -36.7011 7.51768 -3.85326
ltibia 62.0898
lfoot -10.8517 -7.51734
ltoes -8.68953
199
root 19.963 16.8456 1.24962 3.72137 -41.0859 4.36841
lowerback 24.8735 2.2975 -6.79271
upperback 8.57319 1.10795 0.638324
thorax -4.45117 0.341084 4.28413
lowerneck -10.9736 -11.6164 -17.1253
upperneck -12.2741 -13.3996 14.3348
head 0.23544 -6.37469 6.439
rclavicle 6.02318e-014 -9.20373e-014
rhumerus -24.367 -6.93167 -76.9028
rradius 47.9647
rwrist -8.25367
rhand -16.2087 14.8792
rfingers 7.12502
rthumb 9.99882 -14.8633
lclavicle 6.02318e-014 -9.20373e-014
lhumerus -32.6139 -0.0254602 87.406
lradius 69.4475
lwrist -5.48693
lhand -12.727 37.946
lfingers 7.12502
lthumb 13.3564 67.4979
rfemur -38.0556 -11.3145 18.976
rtibia 61.4556
rfoot -28.744 -6.84332
rtoes -10.6489
lfemur -35.9062 6.95365 -4.02342
ltibia 62.2552
lfoot -10.0678 -8.13043
ltoes -7.14254
